<svg width="42" height="59" viewBox="0 0 42 59" fill="none" xmlns="http://www.w3.org/2000/svg">
<path d="M26.5747 22.032C26.5747 23.568 26.0307 24.84 24.9427 25.848C23.8547 26.856 22.5107 27.36 20.9107 27.36C19.8387 27.36 18.7907 27.072 17.7667 26.496C17.3667 26.272 16.7027 25.8 15.7747 25.08L17.0467 23.328C17.9267 24 18.5587 24.448 18.9427 24.672C19.6627 25.072 20.3907 25.272 21.1267 25.272C22.0387 25.272 22.7907 24.992 23.3827 24.432C23.9747 23.872 24.2707 23.168 24.2707 22.32C24.2707 21.52 23.8947 20.848 23.1427 20.304C22.7587 20.032 22.0307 19.688 20.9587 19.272L19.7587 18.816C18.6387 18.384 17.8147 17.856 17.2867 17.232C16.6787 16.512 16.3747 15.568 16.3747 14.4C16.3747 13.04 16.8467 11.944 17.7907 11.112C18.7507 10.264 19.9107 9.84 21.2707 9.84C22.2307 9.84 23.0627 9.976 23.7667 10.248C24.4707 10.504 25.1427 10.928 25.7827 11.52L24.5347 13.224C24.1027 12.728 23.5827 12.352 22.9747 12.096C22.3667 11.824 21.7667 11.688 21.1747 11.688C20.4867 11.688 19.8947 11.952 19.3987 12.48C18.9187 12.992 18.6787 13.584 18.6787 14.256C18.6787 14.896 18.8787 15.432 19.2787 15.864C19.5987 16.2 20.0387 16.48 20.5987 16.704L21.8227 17.184C23.7907 17.936 25.0947 18.696 25.7347 19.464C26.2947 20.152 26.5747 21.008 26.5747 22.032Z" fill="white"/>
<path d="M28.371 5.2L21.099 22.888L13.683 5.2H15.963L21.027 17.344L25.995 5.2H28.371Z" fill="white"/>
</svg>
