<svg width="42" height="36" viewBox="0 0 42 36" fill="none" xmlns="http://www.w3.org/2000/svg">
<path d="M26.5747 20.0828C26.5747 21.6188 26.0307 22.8908 24.9427 23.8988C23.8547 24.9068 22.5107 25.4108 20.9107 25.4108C19.8387 25.4108 18.7907 25.1228 17.7667 24.5468C17.3667 24.3228 16.7027 23.8508 15.7747 23.1308L17.0467 21.3788C17.9267 22.0508 18.5587 22.4988 18.9427 22.7228C19.6627 23.1228 20.3907 23.3228 21.1267 23.3228C22.0387 23.3228 22.7907 23.0428 23.3827 22.4828C23.9747 21.9228 24.2707 21.2188 24.2707 20.3708C24.2707 19.5708 23.8947 18.8988 23.1427 18.3548C22.7587 18.0828 22.0307 17.7388 20.9587 17.3228L19.7587 16.8668C18.6387 16.4348 17.8147 15.9068 17.2867 15.2828C16.6787 14.5628 16.3747 13.6188 16.3747 12.4508C16.3747 11.0908 16.8467 9.99484 17.7907 9.16284C18.7507 8.31484 19.9107 7.89084 21.2707 7.89084C22.2307 7.89084 23.0627 8.02684 23.7667 8.29884C24.4707 8.55484 25.1427 8.97884 25.7827 9.57084L24.5347 11.2748C24.1027 10.7788 23.5827 10.4028 22.9747 10.1468C22.3667 9.87484 21.7667 9.73884 21.1747 9.73884C20.4867 9.73884 19.8947 10.0028 19.3987 10.5308C18.9187 11.0428 18.6787 11.6348 18.6787 12.3068C18.6787 12.9468 18.8787 13.4828 19.2787 13.9148C19.5987 14.2508 20.0387 14.5308 20.5987 14.7548L21.8227 15.2348C23.7907 15.9868 25.0947 16.7468 25.7347 17.5148C26.2947 18.2028 26.5747 19.0588 26.5747 20.0828Z" fill="black"/>
<path d="M28.371 5.2L21.099 22.888L13.683 5.2H15.963L21.027 17.344L25.995 5.2H28.371Z" fill="black"/>
</svg>
